<svg width="75" height="75" viewBox="0 0 75 75" fill="none" xmlns="http://www.w3.org/2000/svg">
<path d="M73.091 34.2058L40.7959 1.9124C38.9373 0.0526367 35.9209 0.0526367 34.0594 1.9124L27.3545 8.61904L35.8611 17.1257C37.8387 16.4583 40.1051 16.906 41.6807 18.4815C42.4315 19.2331 42.9557 20.1808 43.1933 21.2162C43.4309 22.2517 43.3723 23.3331 43.0242 24.3368L51.2226 32.5364C53.206 31.8526 55.4953 32.2944 57.0785 33.8812C59.2934 36.0942 59.2934 39.6819 57.0785 41.8962C56.5522 42.4228 55.9272 42.8405 55.2394 43.1255C54.5516 43.4105 53.8143 43.5572 53.0698 43.5572C52.3253 43.5572 51.588 43.4105 50.9002 43.1255C50.2124 42.8405 49.5875 42.4228 49.0611 41.8962C48.2703 41.1049 47.7313 40.0974 47.5118 39.0005C47.2923 37.9035 47.4023 36.7662 47.8277 35.7315L40.1824 28.0856L40.1812 48.2073C40.7359 48.4805 41.2424 48.8423 41.6807 49.2784C43.8949 51.4915 43.8949 55.078 41.6807 57.2958C39.4664 59.5089 35.8775 59.5089 33.6656 57.2958C31.4519 55.0786 31.2703 51.4921 33.4834 49.2784C34.0307 48.7317 34.5703 48.3186 35.1562 48.0421V27.7341C34.5703 27.4575 34.0312 27.0474 33.4828 26.4972C31.8064 24.8214 31.493 22.3604 32.3531 20.3003L24.0135 11.9138L1.89198 34.0564C0.03163 35.9179 0.0433488 38.9343 1.9037 40.7946L34.2041 73.088C36.0633 74.9478 39.082 74.9478 40.9441 73.088L73.0887 40.9446C74.949 39.0837 74.9508 36.0655 73.091 34.2058Z" fill="#F34F29"/>
</svg>
