<svg width="56" height="56" viewBox="0 0 56 56" fill="none" xmlns="http://www.w3.org/2000/svg">
<path d="M8.32866 49.8209L3.95148 0.726807H52.0485L47.6665 49.8134L27.9707 55.2734L8.32866 49.8209Z" fill="#E44D26"/>
<path d="M28 51.1L43.9154 46.6873L47.6599 4.74072H28V51.1Z" fill="#F16529"/>
<path d="M28 22.949H20.0322L19.4819 16.7828H28V10.762H12.9014L13.0458 12.3772L14.5254 28.9703H28V22.949ZM28 38.5865L27.9733 38.594L21.2677 36.7827L20.8394 31.9811H14.7945L15.638 41.4351L27.9724 44.859L28 44.8515V38.5865Z" fill="#EBEBEB"/>
<path d="M27.979 22.949V28.9703H35.3933L34.6946 36.7792L27.979 38.5918V44.8563L40.3231 41.4351L40.4136 40.4179L41.8285 24.566L41.9751 22.949H40.3528H27.979ZM27.979 10.762V16.7828H42.5233L42.644 15.4301L42.9188 12.3772L43.0627 10.762H27.979Z" fill="white"/>
</svg>
