<svg width="59" height="59" viewBox="0 0 59 59" fill="none" xmlns="http://www.w3.org/2000/svg">
<path d="M29.5507 38.681L29.5595 38.6593C29.547 38.6054 29.5433 38.5911 29.5503 38.681H29.5507Z" fill="#484444"/>
<path d="M29.5507 38.681L29.5595 38.6593C29.547 38.6054 29.5433 38.5911 29.5503 38.681H29.5507Z" fill="url(#paint0_linear_5_46)"/>
<path d="M29.9467 53.2111C29.7393 52.7792 29.4784 51.933 29.306 51.5601C29.1419 51.2125 28.645 50.3054 28.3961 50.0136C27.8545 49.3798 27.7263 49.3328 27.5682 48.5317C27.2907 47.1383 26.5579 44.61 25.6936 42.8654C25.247 41.9652 24.5053 41.2088 23.8268 40.5552C23.234 39.9827 21.8982 39.0193 21.6641 39.0682C19.482 39.5038 18.8049 41.6448 17.7765 43.3411C17.2096 44.2786 16.6081 45.0765 16.16 46.074C15.7456 46.9922 15.7834 48.0076 15.0759 48.7944C14.3485 49.6048 13.8765 50.4653 13.5221 51.5098C13.4539 51.708 13.2626 53.7928 13.0538 54.2879L16.2988 54.0593C19.3216 54.2667 18.4481 55.4259 23.1677 55.172L30.6183 54.9415C30.3859 54.2593 30.067 53.4688 29.9448 53.2111H29.9467Z" fill="url(#paint1_linear_5_46)"/>
<path d="M51.5674 3.79026H7.43628C3.33117 3.7921 0.00366211 7.11915 0.00366211 11.2247V27.4419C1.06751 27.0565 2.59644 24.7952 3.07535 24.2444C3.91426 23.2828 4.06544 22.0549 4.48351 21.2824C5.43581 19.5216 5.59944 18.3116 7.76032 18.3116C8.76839 18.3116 9.16848 18.5435 9.85067 19.4584C10.3241 20.0941 11.1454 21.2699 11.5271 22.0549C11.9696 22.962 12.6919 24.1886 13.009 24.4352C13.2446 24.6205 13.4769 24.7574 13.6949 24.8385C14.0443 24.9717 14.3356 24.7302 14.5697 24.5435C14.8689 24.3038 14.9984 23.8194 15.2759 23.1713C15.6755 22.2365 16.1093 21.1164 16.3577 20.7237C16.7864 20.0489 16.9321 19.2478 17.3948 18.8588C18.0793 18.2863 18.9685 18.2466 19.2155 18.1978C20.5873 17.9258 21.2105 18.8588 21.8853 19.4621C22.3282 19.8562 22.9316 20.6523 23.3621 21.7161C23.6968 22.55 24.1236 23.3202 24.302 23.8014C24.4748 24.2642 24.9012 25.0091 25.1533 25.8987C25.382 26.709 25.9959 27.3303 26.2282 27.7138C26.2282 27.7138 26.585 28.7131 28.7542 29.6276C29.2243 29.8258 30.1752 30.1485 30.7422 30.3536C31.6857 30.6975 32.5989 30.6523 33.7618 30.5136C34.5901 30.5136 35.0404 29.3128 35.4166 28.3513C35.6397 27.7844 35.8522 26.1545 35.9983 25.6935C36.1384 25.2437 35.8093 24.8961 36.09 24.5016C36.4173 24.0406 36.6122 24.0157 36.8012 23.4161C37.2082 22.1323 39.5595 22.0674 40.8791 22.0674C41.9849 22.0674 41.8407 23.1367 43.7098 22.7712C44.7791 22.5606 45.8112 22.9081 46.9474 23.2091C47.9034 23.4626 48.8017 23.7507 49.3419 24.3826C49.6913 24.7915 50.5556 26.8371 49.6734 26.9252C49.7577 27.028 49.8209 27.2151 49.9794 27.3179C49.7831 28.09 48.9276 27.5391 48.4542 27.44C47.8135 27.3087 47.3631 27.4599 46.7367 27.7373C45.6674 28.2144 44.1025 28.1586 43.1695 28.9344C42.379 29.5935 42.3813 31.0612 42.0121 31.8839C42.0121 31.8839 40.9875 34.52 38.751 36.1315C38.1785 36.5454 37.0603 37.5392 34.6242 37.9153C33.5332 38.0849 32.5104 38.0974 31.3884 38.0416L29.7701 37.9803C29.4497 37.9789 28.3582 37.9425 28.4126 38.0471L28.29 38.3495C28.3098 38.4505 28.3495 38.6971 28.3601 38.7584C28.4052 39.0013 28.4177 39.1963 28.4269 39.4207C28.443 39.8817 28.3891 40.3624 28.4126 40.8289C28.461 41.7941 28.8192 42.6763 28.8643 43.6503C28.915 44.7363 29.4516 45.8831 29.9701 46.7708C30.1683 47.1073 30.467 47.1451 30.5984 47.5613C30.7514 48.0361 30.6076 48.5427 30.6814 49.0502C30.9727 51.0165 31.5364 53.0742 32.426 54.8497C32.4315 54.8646 32.4381 54.8791 32.4458 54.893C33.5406 54.7109 34.6371 54.3168 36.0596 54.1062C38.6648 53.7209 42.291 53.9191 44.6192 53.7006C50.5104 53.1484 53.7084 56.1173 59.0018 54.8999V11.2247C59 7.11915 55.6725 3.78979 51.5674 3.78979V3.79026ZM29.5502 38.6809C29.5433 38.591 29.547 38.6035 29.5594 38.6593L29.5502 38.6809Z" fill="url(#paint2_linear_5_46)"/>
<path d="M13.605 45.507C14.0152 44.61 14.2531 43.5872 14.5933 42.669C14.921 41.7904 15.4308 40.5441 16.2987 40.1016C16.1941 39.9771 14.4836 39.9218 14.0263 39.8748L12.5513 39.666L9.71008 39.0806C9.15742 38.9474 7.3192 38.2956 6.91957 38.1122C5.98294 37.6798 5.36022 36.5081 4.62917 36.6279C4.16086 36.704 3.70176 36.8644 3.41552 37.3359C3.17814 37.7213 3.09701 38.3823 2.93292 38.8248C2.74209 39.3401 2.41252 39.8204 2.12444 40.3104C1.59344 41.2092 0.639295 42.0228 0.2286 42.8995C0.145631 43.0792 0.0718809 43.2811 0.00366211 43.4918V53.5102L1.54642 53.843C5.69163 54.9507 6.70339 55.0442 10.7689 54.5778L11.1505 54.5271C11.4603 53.8794 11.7018 51.6752 11.9032 50.9931C12.0599 50.469 12.2761 50.0527 12.3586 49.5181C12.4361 49.011 12.3517 48.528 12.3065 48.0652C12.195 46.911 13.1491 46.4989 13.6064 45.507H13.605Z" fill="url(#paint3_linear_5_46)"/>
<defs>
<linearGradient id="paint0_linear_5_46" x1="29.5531" y1="38.6158" x2="29.5531" y2="38.6807" gradientUnits="userSpaceOnUse">
<stop stop-color="#F29100"/>
<stop offset="1" stop-color="#EC670F"/>
</linearGradient>
<linearGradient id="paint1_linear_5_46" x1="21.8378" y1="39.066" x2="21.8378" y2="55.2087" gradientUnits="userSpaceOnUse">
<stop stop-color="#F29100"/>
<stop offset="1" stop-color="#EC670F"/>
</linearGradient>
<linearGradient id="paint2_linear_5_46" x1="29.5017" y1="3.79072" x2="29.5017" y2="55.1972" gradientUnits="userSpaceOnUse">
<stop stop-color="#F29100"/>
<stop offset="1" stop-color="#EC670F"/>
</linearGradient>
<linearGradient id="paint3_linear_5_46" x1="8.15081" y1="36.6186" x2="8.15081" y2="54.8423" gradientUnits="userSpaceOnUse">
<stop stop-color="#F29100"/>
<stop offset="1" stop-color="#EC670F"/>
</linearGradient>
</defs>
</svg>
