<svg width="68" height="68" viewBox="0 0 68 68" fill="none" xmlns="http://www.w3.org/2000/svg">
<path d="M1.0625 33.9521V67.1553H67.4688V0.749023H1.0625V33.9521ZM54.5753 31.2959C56.1658 31.665 57.6114 32.4968 58.7297 33.6865C59.3453 34.3274 59.8805 35.041 60.3234 35.8115C60.3234 35.8965 57.4547 37.8356 55.7069 38.9193C55.6431 38.9618 55.3881 38.6856 55.1066 38.2659C54.7875 37.7153 54.3341 37.2546 53.7888 36.9267C53.2435 36.5987 52.624 36.4143 51.9881 36.3906C49.9747 36.2525 48.6784 37.3096 48.6891 39.0468C48.6724 39.4794 48.7714 39.9085 48.9759 40.29C49.4169 41.209 50.2403 41.7562 52.8222 42.8718C57.5769 44.9171 59.6116 46.2665 60.8759 48.1843C62.2891 50.3093 62.6025 53.7412 61.6463 56.2806C60.5838 59.0431 57.9806 60.9184 54.2991 61.54C52.6176 61.7326 50.9186 61.7147 49.2416 61.4868C46.6821 61.0716 44.3211 59.853 42.5 58.0071C41.8891 57.3325 40.6991 55.574 40.7734 55.4465C40.9674 55.3026 41.1716 55.1729 41.3844 55.0587L43.8281 53.6562L45.7353 52.5512L46.1337 53.1409C46.8062 54.1028 47.6619 54.9224 48.6519 55.5528C50.7769 56.6684 53.6775 56.5143 55.1119 55.2234C55.5935 54.7503 55.8939 54.1234 55.9609 53.4517C56.0279 52.7799 55.8571 52.106 55.4784 51.5471C54.9472 50.8087 53.8847 50.1871 50.915 48.8909C47.4884 47.414 46.0116 46.5003 44.6622 45.0446C43.8198 44.0841 43.1979 42.9508 42.84 41.7243C42.5731 40.3231 42.5336 38.8881 42.7231 37.4743C43.4297 34.1646 45.9106 31.8537 49.5337 31.1684C51.2117 30.9608 52.9113 31.0074 54.5753 31.3065V31.2959ZM38.9884 34.0797V36.7996H30.3662V61.3593H24.2516V36.7943H15.6081V34.1381C15.5849 33.2237 15.6097 32.3087 15.6825 31.3968C15.7144 31.3543 20.995 31.3331 27.37 31.3437H38.9566L38.9884 34.0797Z" fill="#007ACC"/>
</svg>
