<svg width="65" height="65" viewBox="0 0 65 65" fill="none" xmlns="http://www.w3.org/2000/svg">
<path d="M64.3246 49.9891C62.009 50.5782 60.577 50.0145 59.2922 48.0848C56.4078 43.7633 53.2238 39.6399 50.1516 35.4403C49.7555 34.8969 49.3441 34.3637 48.8312 33.6883C45.1953 38.5938 41.5645 43.2656 38.157 48.1254C36.9383 49.8621 35.6586 50.6188 33.3836 50.0043L47.0539 31.6571L34.3281 15.0871C36.5168 14.6606 38.0301 14.8789 39.3707 16.8391C42.3312 21.1656 45.5965 25.284 48.8516 29.641C52.1269 25.2992 55.3516 21.1758 58.3984 16.8899C59.6223 15.1531 60.9375 14.493 63.1363 15.1328C61.4707 17.3418 59.8406 19.5153 58.2004 21.6735C55.9863 24.5832 53.8129 27.5285 51.5176 30.3774C50.7 31.393 50.832 32.0532 51.5633 33.0129C55.8086 38.5938 60.0031 44.2305 64.3246 49.9891ZM0.675391 31.3524C1.04102 29.5192 1.28477 27.6504 1.79258 25.8528C4.83945 14.9703 17.3316 10.4457 25.9137 17.1895C30.941 21.1453 32.1902 26.7211 31.9414 33.0078H3.60547C3.17891 44.2864 11.2988 51.0961 21.648 47.6227C25.2789 46.4039 27.4168 43.5602 28.4883 40.0055C29.0316 38.2231 29.9305 37.9438 31.6063 38.4516C30.748 42.9 28.8031 46.6172 24.7406 48.943C18.6469 52.4266 9.94805 51.2992 5.37266 46.4598C2.67109 43.616 1.52344 40.0766 1.01563 36.2528C0.939453 35.6434 0.782031 35.0442 0.660156 34.4399C0.670312 33.4107 0.675391 32.3815 0.675391 31.3524ZM3.65625 30.5957H29.2652C29.0977 22.4403 24.0195 16.6461 17.0777 16.5953C9.46055 16.5344 3.98633 22.1914 3.65625 30.5957Z" fill="black"/>
</svg>
