<svg width="63" height="63" viewBox="0 0 63 63" fill="none" xmlns="http://www.w3.org/2000/svg">
<path d="M1.79944 22.1695C1.79944 22.1695 0.309587 21.0912 2.09967 19.653L6.26752 15.9153C6.26752 15.9153 7.46156 14.6558 8.72304 15.7539L47.1998 44.9544V58.9571C47.1998 58.9571 47.1806 61.1562 44.3663 60.914L1.79944 22.1695Z" fill="#2489CA"/>
<path d="M11.7185 31.1943L1.79943 40.2324C1.79943 40.2324 0.780603 40.9918 1.79943 42.3512L6.40434 46.5481C6.40434 46.5481 7.49798 47.7269 9.11531 46.3867L19.6279 38.3945L11.7185 31.1943Z" fill="#1070B3"/>
<path d="M29.1296 31.2691L47.3174 17.3476L47.1998 3.42017C47.1998 3.42017 46.4231 0.380421 43.8317 1.96379L19.6279 24.0438L29.1296 31.2691Z" fill="#0877B9"/>
<path d="M44.3658 60.9312C45.4216 62.0155 46.7022 61.6597 46.7022 61.6597L60.8757 54.6598C62.6904 53.4195 62.4365 51.8814 62.4365 51.8814V10.0725C62.4365 8.23419 60.5603 7.59976 60.5603 7.59976L48.2748 1.66349C45.5909 0.000384629 43.8318 1.96372 43.8318 1.96372C43.8318 1.96372 46.0924 0.331135 47.1998 3.4206V58.7016C47.1998 59.0821 47.1191 59.4547 46.9577 59.7913C46.6348 60.4469 45.931 61.0562 44.2487 60.8008L44.3658 60.9312Z" fill="#3C99D4"/>
</svg>
