<svg width="54" height="54" viewBox="0 0 54 54" fill="none" xmlns="http://www.w3.org/2000/svg">
<path d="M7.93709 48.1456L3.69556 0.570312H50.3043L46.0586 48.1384L26.9717 53.43L7.93709 48.1456Z" fill="#1572B6"/>
<path d="M27.0004 49.3857L42.4237 45.1096L46.0522 4.46021H27.0004V49.3857Z" fill="#33A9DC"/>
<path d="M27.0004 21.6964H34.7215L35.2548 15.7214H27.0004V9.88647H41.6318L41.4918 11.4521L40.0574 27.5314H27.0004V21.6964Z" fill="white"/>
<path d="M27.035 36.8501L27.0093 36.8577L20.5112 35.1032L20.0956 30.4495H14.2391L15.0563 39.6113L27.0084 42.9285L27.035 42.9209V36.8501Z" fill="#EBEBEB"/>
<path d="M34.2255 27.2847L33.5226 35.0986L27.0148 36.8553V42.9261L38.9766 39.611L39.0644 38.6251L40.0794 27.2847H34.2255Z" fill="white"/>
<path d="M27.0202 9.88647V15.7214H12.9262L12.8094 14.4102L12.5436 11.4521L12.4039 9.88647H27.0202ZM27.0004 21.6973V27.5322H20.5841L20.4672 26.2211L20.201 23.2629L20.0618 21.6973H27.0004Z" fill="#EBEBEB"/>
</svg>
