<svg width="73" height="73" viewBox="0 0 73 73" fill="none" xmlns="http://www.w3.org/2000/svg">
<path d="M71.175 29.7133C68.7226 28.2875 65.4719 28.1164 62.7344 28.9148C62.3922 25.9492 60.4531 23.3828 58.1719 21.5578L57.2594 20.8164L56.4609 21.7289C54.9211 23.4969 54.4648 26.4625 54.693 28.7438C54.8641 30.3977 55.3773 32.1086 56.4039 33.4773C55.6055 33.9336 54.75 34.5609 53.9516 34.8461C52.3547 35.4164 50.5867 35.9867 48.8758 35.9867H45.0547V27.9453H37.6406V13.6875H29.0859V20.5312H14.8281V27.9453H7.41405V35.9297H1.02655L0.912491 36.7852C0.627335 40.4352 1.08359 43.9711 2.62343 47.3359L3.25077 48.5906L3.3078 48.7047C7.81327 56.3469 15.6836 59.5406 24.2953 59.5406C40.9484 59.5406 54.693 52.0695 60.9664 36.3859C65.1867 36.6141 69.5211 35.3594 71.5742 31.3102L72.0875 30.2836L71.175 29.7133ZM15.9687 22.2422H21.6719V28.5156H15.9687V22.2422ZM23.4398 47.45C23.4398 48.4195 22.6414 49.218 21.6719 49.218C20.7023 49.218 19.9039 48.4195 19.9039 47.45C19.9039 46.4805 20.7023 45.682 21.6719 45.682C22.6414 45.7391 23.4398 46.4805 23.4398 47.45ZM15.9687 29.6562H21.6719V35.9297H15.9687V29.6562ZM8.55468 29.6562H14.8281V35.9297H8.55468V29.6562ZM24.3523 58.2859C15.3414 58.2289 10.4937 55.2063 6.50155 51.2141C7.69921 51.2711 8.83984 51.3281 9.8664 51.3281C10.7789 51.3281 11.6914 51.3281 12.5469 51.2711C14.7711 51.157 16.7101 50.8719 18.307 50.4156C19.6187 53.4383 22.0141 56.2328 26.2914 58.2859H24.3523ZM29.0859 35.9297H22.8125V29.6562H29.0859V35.9297ZM29.0859 28.5156H22.8125V22.2422H29.0859V28.5156ZM36.5 35.9297H30.2266V29.6562H36.5V35.9297ZM36.5 28.5156H30.2266V22.2422H36.5V28.5156ZM36.5 21.1016H30.2266V14.8281H36.5V21.1016ZM43.9141 35.9297H37.6406V29.6562H43.9141V35.9297ZM22.1281 46.3094C22.0141 46.2523 21.843 46.1953 21.6719 46.1953C20.9875 46.1953 20.4172 46.7656 20.4172 47.45C20.4172 48.1344 20.9875 48.7047 21.6719 48.7047C22.3562 48.7047 22.9266 48.1344 22.9266 47.45C22.9266 47.2789 22.8695 47.1078 22.8125 46.9938C22.6984 47.1648 22.5844 47.2789 22.3562 47.2789C22.0711 47.2789 21.843 47.0508 21.843 46.7656C21.9 46.5375 22.0141 46.3664 22.1281 46.3094Z" fill="#019BC6"/>
</svg>
