<svg width="57" height="57" viewBox="0 0 57 57" fill="none" xmlns="http://www.w3.org/2000/svg">
<path fill-rule="evenodd" clip-rule="evenodd" d="M28.5 2.27246C13.6502 2.27246 1.60846 14.3115 1.60846 29.164C1.60846 41.0458 9.3137 51.1255 19.9985 54.6817C21.342 54.9311 21.8354 54.0984 21.8354 53.3881C21.8354 52.7469 21.8105 50.6285 21.7989 48.3815C14.3177 50.0082 12.739 45.2086 12.739 45.2086C11.5158 42.1003 9.75323 41.2738 9.75323 41.2738C7.31291 39.6048 9.93714 39.6395 9.93714 39.6395C12.6371 39.8288 14.0594 42.4107 14.0594 42.4107C16.4579 46.5209 20.3503 45.3328 21.8849 44.6462C22.1262 42.9081 22.8231 41.7214 23.5922 41.0498C17.6192 40.3707 11.3399 38.0645 11.3399 27.7604C11.3399 24.8244 12.3908 22.4255 14.1111 20.5419C13.8314 19.865 12.9109 17.1299 14.3711 13.4258C14.3711 13.4258 16.6288 12.703 21.7678 16.1822C23.9133 15.586 26.2142 15.2863 28.5 15.276C30.7844 15.2863 33.0867 15.5851 35.2362 16.1814C40.3689 12.7021 42.624 13.4249 42.624 13.4249C44.0877 17.1285 43.1672 19.8641 42.888 20.541C44.6123 22.4246 45.6557 24.8235 45.6557 27.7595C45.6557 38.0881 39.3647 40.3618 33.3766 41.028C34.3416 41.8625 35.2011 43.4995 35.2011 46.0079C35.2011 49.6061 35.1699 52.5019 35.1699 53.3877C35.1699 54.1033 35.6544 54.9418 37.017 54.6777C47.6956 51.1179 55.392 41.0414 55.392 29.164C55.3915 14.3124 43.3512 2.27291 28.5 2.27291V2.27246Z" fill="#181616"/>
<path d="M11.7937 40.8825C11.7344 41.0161 11.5243 41.0561 11.3328 40.9648C11.1368 40.8776 11.0277 40.6954 11.091 40.5614C11.1489 40.4233 11.3595 40.3855 11.5541 40.4777C11.75 40.5654 11.8614 40.7493 11.7932 40.8829L11.7937 40.8825ZM12.8829 42.0977C12.7551 42.2166 12.5044 42.1614 12.3343 41.973C12.1579 41.786 12.125 41.5353 12.2555 41.4146C12.3882 41.2962 12.6313 41.3523 12.8076 41.5393C12.9831 41.729 13.0178 41.9775 12.8834 42.0982L12.8829 42.0977ZM13.9436 43.6461C13.7789 43.761 13.509 43.6536 13.3425 43.4145C13.1777 43.1749 13.1777 42.8877 13.3469 42.7733C13.513 42.6584 13.7789 42.7621 13.9481 42.999C14.112 43.2417 14.112 43.529 13.9436 43.6456V43.6461ZM15.3958 45.1428C15.2489 45.3053 14.9345 45.2617 14.7047 45.0403C14.47 44.8235 14.4045 44.5149 14.5519 44.3528C14.7016 44.1898 15.0173 44.2352 15.2484 44.4552C15.4831 44.6716 15.5539 44.9807 15.3967 45.1423L15.3958 45.1428ZM17.3997 46.0116C17.3342 46.2222 17.0323 46.3179 16.7273 46.228C16.4231 46.1358 16.2241 45.8896 16.2864 45.6767C16.3488 45.4643 16.6529 45.365 16.9597 45.4607C17.2639 45.5525 17.4629 45.7974 17.3997 46.0116ZM19.6009 46.1723C19.6085 46.3941 19.3502 46.5776 19.0309 46.582C18.7089 46.5896 18.4484 46.4097 18.4453 46.1915C18.4453 45.9675 18.6982 45.7862 19.0198 45.78C19.339 45.7742 19.6013 45.9523 19.6013 46.1719L19.6009 46.1723ZM21.6484 45.8241C21.6867 46.0401 21.4645 46.2623 21.147 46.3215C20.8353 46.3794 20.5458 46.2449 20.5058 46.0307C20.4675 45.809 20.6937 45.5867 21.0054 45.5293C21.3234 45.4745 21.6084 45.605 21.6484 45.8245V45.8241Z" fill="#181616"/>
</svg>
