<svg width="68" height="68" viewBox="0 0 68 68" fill="none" xmlns="http://www.w3.org/2000/svg">
<path d="M25.2965 52.1262C25.2965 52.1262 22.764 53.5999 27.1012 54.0972C32.3563 54.6975 35.0418 54.6114 40.8313 53.517C40.8313 53.517 42.3565 54.4706 44.4826 55.2973C31.4994 60.8594 15.1002 54.9748 25.2965 52.1262ZM23.7091 44.8667C23.7091 44.8667 20.868 46.9699 25.2088 47.4194C30.8226 47.9989 35.2548 48.0462 42.9282 46.5694C42.9282 46.5694 43.9869 47.6451 45.6545 48.2327C29.9604 52.8227 12.4801 48.5939 23.7091 44.8667Z" fill="#0074BD"/>
<path d="M37.0823 32.5503C40.2831 36.2345 36.2429 39.5468 36.2429 39.5468C36.2429 39.5468 44.3652 35.3547 40.6358 30.1028C37.1513 25.2073 34.4802 22.7758 48.9419 14.3884C48.9419 14.389 26.2411 20.0569 37.0823 32.5503Z" fill="#EA2D2E"/>
<path d="M54.2528 57.4967C54.2528 57.4967 56.1276 59.0426 52.1873 60.2374C44.6957 62.5069 20.9998 63.1912 14.4187 60.3283C12.0541 59.2987 16.49 57.8712 17.8856 57.57C19.3407 57.255 20.1716 57.3124 20.1716 57.3124C17.5403 55.4599 3.16466 60.9514 12.8706 62.5266C39.338 66.817 61.1171 60.5944 54.2528 57.4967ZM26.5158 37.3437C26.5158 37.3437 14.4638 40.2066 22.2482 41.2474C25.5356 41.6872 32.0859 41.5863 38.1916 41.0742C43.18 40.655 48.186 39.7599 48.186 39.7599C48.186 39.7599 46.4286 40.5137 45.1557 41.3818C32.9147 44.6017 9.27297 43.102 16.0799 39.8103C21.8344 37.0271 26.5158 37.3437 26.5158 37.3437ZM48.136 49.4281C60.5784 42.9644 54.825 36.7525 50.8093 37.5892C49.8275 37.7937 49.3871 37.9717 49.3871 37.9717C49.3871 37.9717 49.7526 37.3985 50.4496 37.152C58.3934 34.3602 64.5017 45.3879 47.8874 49.7559C47.8874 49.7548 48.0781 49.5821 48.136 49.4281Z" fill="#0074BD"/>
<path d="M40.6358 0.843018C40.6358 0.843018 47.5251 7.73652 34.0999 18.3334C23.3336 26.8365 31.645 31.6837 34.0962 37.2241C27.8109 31.5541 23.2007 26.5619 26.2932 21.9161C30.8343 15.098 43.4148 11.791 40.6358 0.843018Z" fill="#EA2D2E"/>
<path d="M27.7387 66.9487C39.6791 67.7121 58.0199 66.5237 58.454 60.8733C58.454 60.8733 57.6194 63.0153 48.5849 64.7148C38.3924 66.6336 25.8187 66.41 18.3637 65.1791C18.3637 65.1796 19.8911 66.444 27.7387 66.9487Z" fill="#0074BD"/>
</svg>
