<svg width="68" height="68" viewBox="0 0 68 68" fill="none" xmlns="http://www.w3.org/2000/svg">
<path d="M0.747986 0.748047H67.252V67.2526H0.747986V0.748047Z" fill="#F0DB4F"/>
<path d="M61.8093 51.3911C61.3222 48.3571 59.3438 45.8087 53.4836 43.4324C51.4478 42.4969 49.1783 41.827 48.502 40.2842C48.2619 39.3864 48.23 38.8807 48.382 38.3372C48.8181 36.5735 50.9235 36.0236 52.5921 36.5294C53.6669 36.8896 54.6842 37.7178 55.2978 39.039C58.1676 37.1807 58.1618 37.1929 60.1656 35.9158C59.432 34.7784 59.0405 34.2535 58.5602 33.7669C56.8342 31.839 54.4823 30.8461 50.7211 30.922L48.7618 31.1754C46.8844 31.6498 45.0951 32.6353 44.0459 33.9565C40.8977 37.5286 41.7955 43.7804 45.6264 46.3532C49.4004 49.1859 54.9445 49.8303 55.6527 52.4791C56.3417 55.7218 53.2695 56.7716 50.2159 56.3986C47.9655 55.9306 46.7139 54.7868 45.3608 52.707C42.8703 54.1483 42.8703 54.1483 40.3096 55.6209C40.9169 56.9485 41.5549 57.5493 42.5728 58.6995C47.3901 63.5859 59.4453 63.3458 61.6075 55.9497C61.6951 55.6958 62.2774 54.0022 61.8093 51.3911ZM36.9017 31.3136H30.6813L30.6558 47.3956C30.6558 50.8157 30.8327 53.9512 30.2765 54.9122C29.3664 56.8024 27.0082 56.5681 25.9335 56.2016C24.8396 55.6639 24.2834 54.8995 23.639 53.8189C23.4621 53.5086 23.3293 53.2685 23.2847 53.2499L18.2272 56.3471C19.0681 58.0731 20.307 59.5713 21.8939 60.5445C24.2643 61.9672 27.4502 62.4034 30.7822 61.6384C32.9508 61.0067 34.8218 59.6982 35.8015 57.7066C37.2178 55.0955 36.9139 51.9351 36.9011 48.4395C36.933 42.7365 36.9017 37.0346 36.9017 31.3136Z" fill="#323330"/>
</svg>
