<svg width="71" height="71" viewBox="0 0 71 71" fill="none" xmlns="http://www.w3.org/2000/svg">
<path d="M59.919 8.875H34.2825C34.2825 15.265 39.4566 20.4391 45.846 20.4391H50.5609V25.002C50.5609 31.392 55.735 36.5661 62.125 36.5661V11.081C62.1249 10.496 61.8924 9.93495 61.4787 9.52128C61.0651 9.10761 60.504 8.87515 59.919 8.875Z" fill="#253858"/>
<path d="M47.2155 21.6551H21.5784C21.5784 28.0445 26.7509 33.2187 33.1403 33.2187H37.8574V37.7815C37.8574 44.1715 43.0315 49.3456 49.4215 49.3456V23.8605C49.4206 23.2757 49.1879 22.7151 48.7744 22.3016C48.3609 21.8881 47.8003 21.6554 47.2155 21.6545V21.6551Z" fill="#253858"/>
<path d="M34.5121 34.4338H8.875C8.875 40.8238 14.0469 45.998 20.4369 45.998H25.154V50.5608C25.154 56.953 30.3281 62.1249 36.7175 62.1249V36.642C36.717 36.0571 36.4845 35.4963 36.0711 35.0824C35.6577 34.6686 35.097 34.4356 34.5121 34.4344V34.4338Z" fill="#253858"/>
</svg>
