<svg width="66" height="66" viewBox="0 0 66 66" fill="none" xmlns="http://www.w3.org/2000/svg">
<path fill-rule="evenodd" clip-rule="evenodd" d="M45.3946 22.075C46.2222 24.469 46.8182 26.9131 47.0142 29.4463C47.2575 32.5891 47.1462 35.7096 46.4836 38.8008C46.4655 38.8859 46.4274 38.9658 46.399 39.0483C46.1912 39.0488 45.9793 39.023 45.7761 39.0545C44.0596 39.3242 42.3447 39.6036 40.6297 39.8815C38.857 40.1687 37.0817 40.4446 35.3121 40.7514C34.6851 40.8597 33.909 40.7303 33.6559 41.5975C33.6486 41.6213 33.5765 41.6254 33.5347 41.6388L33.6203 36.4562L33.5331 23.9513L34.3592 23.8095C35.7101 23.5883 37.0611 23.364 38.413 23.149C40.0264 22.8927 41.6413 22.6437 43.2558 22.3936C43.9678 22.2827 44.681 22.1812 45.3946 22.075Z" fill="#439934"/>
<path fill-rule="evenodd" clip-rule="evenodd" d="M31.829 56.7465C30.9576 55.9973 30.0558 55.2811 29.2204 54.4932C24.7257 50.2537 21.4381 45.264 19.8191 39.2482C19.373 37.5926 19.0755 35.9101 18.9801 34.1992C18.9131 33.002 18.8162 31.7939 18.9007 30.6028C19.1261 27.4348 19.5839 24.2972 20.5131 21.2457L20.5641 21.1746C20.6544 21.2947 20.7843 21.4009 20.8302 21.5365C21.7372 24.2075 22.6375 26.8805 23.5331 29.555C26.3474 37.9597 29.1581 46.3665 31.977 54.7691C32.0321 54.933 32.175 55.0676 32.2776 55.2156L31.829 56.7465Z" fill="#45A538"/>
<path fill-rule="evenodd" clip-rule="evenodd" d="M45.3946 22.075C44.681 22.1812 43.9673 22.2828 43.2553 22.3926C41.6408 22.6427 40.0259 22.8918 38.4125 23.148C37.0605 23.363 35.7096 23.5873 34.3587 23.8085L33.5326 23.9503L33.5264 23.4115C33.4991 22.9686 33.4522 22.5262 33.447 22.0833C33.4115 19.2587 33.3893 16.4341 33.3542 13.6095C33.3326 11.8414 33.3001 10.0738 33.264 8.30627C33.2418 7.20799 33.2181 6.10919 33.1686 5.01246C33.1418 4.4231 33.0469 3.83683 33.0082 3.24747C32.9866 2.90871 33.0165 2.56736 33.0232 2.22705C33.4445 3.04329 33.8564 3.86571 34.2896 4.67575C34.9738 5.95657 36.0638 6.90016 37.0451 7.92986C40.9241 11.9992 43.6781 16.7306 45.3946 22.075Z" fill="#46A037"/>
<path fill-rule="evenodd" clip-rule="evenodd" d="M33.5342 41.6383C33.5759 41.6249 33.6486 41.6207 33.6554 41.597C33.9085 40.7297 34.6845 40.8592 35.3115 40.7509C37.0812 40.4446 38.8565 40.1682 40.6292 39.881C42.3441 39.6031 44.0591 39.3236 45.7756 39.054C45.9788 39.022 46.1907 39.0483 46.3985 39.0478C46.0778 40.1925 45.8251 41.3619 45.4183 42.4751C44.9563 43.7379 44.3974 44.9702 43.8039 46.1783C42.9154 47.9803 41.8157 49.6702 40.5281 51.2124C39.5386 52.4025 38.4357 53.5023 37.3302 54.5887C36.7192 55.1894 35.9989 55.6787 35.3286 56.2186L35.1548 56.1L34.5288 55.5648L33.8812 54.1453C33.4388 52.4894 33.1975 50.7862 33.1624 49.0726L33.1743 48.7833L33.2624 47.5324C33.2918 47.1054 33.331 46.679 33.3491 46.2511C33.4156 44.7135 33.4733 43.1759 33.5342 41.6383Z" fill="#409433"/>
<path fill-rule="evenodd" clip-rule="evenodd" d="M33.5342 41.6382C33.4733 43.1758 33.4156 44.7134 33.3501 46.2515C33.3321 46.6795 33.2929 47.1059 33.2635 47.5329L32.869 47.6819C31.993 45.1027 31.1164 42.5509 30.2589 39.9924C28.841 35.7596 27.44 31.5201 26.0241 27.2863C24.8805 23.869 23.7289 20.4544 22.5694 17.0424C22.5153 16.8826 22.3596 16.7578 22.2513 16.6165L24.7758 11.9749C24.8624 12.1254 24.9769 12.2662 25.0315 12.4281C26.2007 15.8839 27.364 19.3417 28.5213 22.8014C30.0248 27.3028 31.5191 31.8079 33.0217 36.3098C33.0815 36.4897 33.1805 36.6558 33.2748 36.8574L33.6203 36.4552L33.5342 41.6382Z" fill="#4FAA41"/>
<path fill-rule="evenodd" clip-rule="evenodd" d="M22.2518 16.6169C22.3601 16.7582 22.5153 16.883 22.57 17.0428C23.7295 20.4548 24.881 23.8695 26.0247 27.2868C27.4406 31.5206 28.8415 35.76 30.2595 39.9928C31.1164 42.5508 31.993 45.1032 32.8696 47.6823L33.264 47.5333L33.1759 48.7842L33.0959 49.0724C32.9588 50.4419 32.8433 51.8145 32.6762 53.1809C32.5922 53.8657 32.4138 54.5381 32.2781 55.2161C32.1761 55.0681 32.0327 54.9336 31.9775 54.7696C29.1586 46.3664 26.3479 37.9602 23.5337 29.5555C22.6383 26.8808 21.7374 24.208 20.8308 21.537C20.7849 21.4014 20.6554 21.2952 20.5647 21.1751L22.2518 16.6169Z" fill="#4AA73C"/>
<path fill-rule="evenodd" clip-rule="evenodd" d="M33.6198 36.4557L33.2743 36.8579C33.18 36.6563 33.081 36.4897 33.0211 36.3103C31.5191 31.8084 30.0243 27.3033 28.5208 22.8019C27.3635 19.3422 26.2002 15.8844 25.031 12.4286C24.9769 12.2667 24.8624 12.1254 24.7753 11.9754L27.8974 7.86841C27.9959 7.99989 28.1361 8.11694 28.1872 8.26492C29.0539 10.8023 29.913 13.3428 30.7668 15.8848C31.5645 18.2588 32.3503 20.6363 33.1573 23.0072C33.2114 23.166 33.3996 23.2784 33.5254 23.4124L33.5316 23.9513C33.5615 28.1185 33.5909 32.2874 33.6198 36.4557Z" fill="#57AE47"/>
<path fill-rule="evenodd" clip-rule="evenodd" d="M33.5264 23.4114C33.4006 23.2773 33.2124 23.1649 33.1583 23.0061C32.3513 20.6352 31.5655 18.2577 30.7678 15.8837C29.914 13.3417 29.0549 10.8017 28.1882 8.26384C28.1371 8.11585 27.9969 7.99881 27.8984 7.86732C28.9136 6.8732 29.8975 5.84349 30.9535 4.89526C31.8924 4.05273 32.6473 3.14935 32.6818 1.81801C32.6834 1.76284 32.7123 1.70767 32.7566 1.55298L33.0242 2.22638C33.0175 2.56721 32.9871 2.90804 33.0093 3.24681C33.0479 3.83617 33.1428 4.42243 33.1696 5.01179C33.2191 6.10853 33.2428 7.20732 33.265 8.3056C33.3006 10.0732 33.3331 11.8407 33.3552 13.6088C33.3898 16.4334 33.4125 19.258 33.4481 22.0826C33.4522 22.5265 33.4986 22.9684 33.5264 23.4114Z" fill="#60B24F"/>
<path fill-rule="evenodd" clip-rule="evenodd" d="M32.2771 55.2157C32.4127 54.5377 32.5911 53.8648 32.6751 53.1805C32.8427 51.8147 32.9577 50.4415 33.0949 49.072L33.1289 49.0669L33.1629 49.0726C33.198 50.7862 33.4393 52.4894 33.8817 54.1453C33.791 54.2649 33.6626 54.3716 33.6146 54.5067C33.2398 55.5638 32.8866 56.629 32.5096 57.6861C32.4581 57.8305 32.3147 57.9429 32.2137 58.0697L31.8285 56.7466L32.2771 55.2157Z" fill="#A9AA88"/>
<path fill-rule="evenodd" clip-rule="evenodd" d="M32.2142 58.0702C32.3152 57.9433 32.4591 57.8309 32.5101 57.6865C32.8871 56.6295 33.2408 55.5648 33.6151 54.5072C33.6631 54.3721 33.791 54.2654 33.8822 54.1458L34.5293 55.5658C34.4015 55.7473 34.2251 55.9107 34.154 56.1129L32.9144 59.7527C32.8633 59.8986 32.6891 60.0017 32.5725 60.1249L32.2142 58.0702Z" fill="#B6B598"/>
<path fill-rule="evenodd" clip-rule="evenodd" d="M32.5726 60.1243C32.6896 60.0016 32.8634 59.898 32.9144 59.7521L34.154 56.1123C34.2246 55.9107 34.4015 55.7467 34.5294 55.5652L35.1559 56.0999C34.8532 56.399 34.6851 56.7444 34.7861 57.1812L34.5959 57.804C34.5093 57.9108 34.384 58.0036 34.3412 58.1258C33.9086 59.3648 33.4955 60.6106 33.0598 61.8496C33.0047 62.0069 32.8515 62.1301 32.7432 62.2683C32.687 61.5531 32.6298 60.8395 32.5726 60.1243Z" fill="#C2C1A7"/>
<path fill-rule="evenodd" clip-rule="evenodd" d="M32.7437 62.2685C32.8515 62.1298 33.0046 62.0065 33.0603 61.8498C33.496 60.6113 33.9091 59.3655 34.3417 58.1259C34.3845 58.0043 34.5092 57.9109 34.5964 57.8042L34.3339 60.6633C34.2638 60.7443 34.1622 60.8149 34.1287 60.9093C33.8322 61.7415 33.5528 62.5799 33.2552 63.4121C33.1939 63.5838 33.0763 63.7354 32.9845 63.8958C32.9031 63.7891 32.7571 63.6859 32.7504 63.5746C32.7241 63.1409 32.7422 62.7042 32.7437 62.2685Z" fill="#CECDB7"/>
<path fill-rule="evenodd" clip-rule="evenodd" d="M32.984 63.8958C33.0758 63.7349 33.1934 63.5833 33.2547 63.4121C33.5527 62.5804 33.8317 61.742 34.1282 60.9093C34.1617 60.8149 34.2638 60.7448 34.3334 60.6633L34.3396 62.5402L33.7116 64.151L32.984 63.8958Z" fill="#DBDAC7"/>
<path fill-rule="evenodd" clip-rule="evenodd" d="M33.7115 64.1516L34.3396 62.5408L34.469 64.4465L33.7115 64.1516Z" fill="#EBE9DC"/>
<path fill-rule="evenodd" clip-rule="evenodd" d="M34.7861 57.1819C34.6851 56.7451 34.8526 56.3991 35.1558 56.1006L35.3296 56.2192L34.7861 57.1819Z" fill="#CECDB7"/>
<path fill-rule="evenodd" clip-rule="evenodd" d="M33.1629 49.0732L33.1289 49.0675L33.0948 49.0727L33.1748 48.7844L33.1629 49.0732Z" fill="#4FAA41"/>
</svg>
