<svg width="73" height="73" viewBox="0 0 73 73" fill="none" xmlns="http://www.w3.org/2000/svg">
<path d="M64.2617 17.2999L39.0864 2.69706C37.5003 1.79369 35.4227 1.79369 33.8241 2.69706L8.45203 17.2999C6.8158 18.2415 5.70312 20.0112 5.70312 21.904V51.071C5.70312 52.9638 6.83919 54.7341 8.47598 55.6808L15.1652 59.4951C18.3743 61.076 19.2634 61.076 20.7234 61.076C25.4764 61.076 27.9447 58.2022 27.9447 53.1897V24.3946C27.9453 23.988 28.1991 23.3829 27.7993 23.3829H24.593C24.187 23.3829 23.3828 23.988 23.3828 24.394V53.1891C23.3828 55.411 21.3206 57.6221 17.5645 55.7441L10.6512 51.7445C10.4105 51.6133 10.2656 51.3493 10.2656 51.071V21.904C10.2656 21.6292 10.5297 21.3531 10.7738 21.2123L36.0831 6.6345C36.2074 6.56849 36.3459 6.53397 36.4866 6.53397C36.6273 6.53397 36.7658 6.56849 36.8901 6.6345L61.9627 21.2088C62.2028 21.3531 62.1646 21.6206 62.1646 21.904V51.071C62.1646 51.3493 62.2171 51.6202 61.9804 51.7542L36.8108 66.3405C36.5952 66.47 36.3146 66.47 36.078 66.3405L29.6237 62.4915C29.4293 62.3786 29.1949 62.3381 29.0078 62.4424C27.2142 63.4593 26.8811 63.5945 25.1987 64.1779C24.7841 64.3222 24.1727 64.5725 25.4314 65.278L33.8709 70.2705C34.6765 70.736 35.5906 70.9811 36.5211 70.9811C37.4552 70.9827 38.3732 70.7375 39.1822 70.2705L64.2622 55.6808C65.8996 54.7272 66.7271 52.9638 66.7271 51.071V21.904C66.7266 20.0112 65.899 18.2461 64.2617 17.2999ZM44.3287 46.4492C37.6406 46.4492 36.1681 44.6042 35.677 41.2787C35.6189 40.9205 35.3155 40.4922 34.9505 40.4922H31.6826C31.2782 40.4922 30.9526 40.9827 30.9526 41.3854C30.9526 45.6433 33.268 50.8024 44.3287 50.8024C52.3347 50.8024 56.9257 47.6913 56.9257 42.1855C56.9257 36.7265 53.2375 35.2938 45.4727 34.2661C37.6241 33.2287 36.8268 32.7046 36.8268 30.8659C36.8268 29.35 37.502 27.3283 43.3135 27.3283C48.5056 27.3283 50.4196 28.4427 51.2072 31.9427C51.2751 32.2718 51.5756 32.5079 51.915 32.5079H55.1966C55.3984 32.5079 55.5906 32.4263 55.7321 32.282C55.8695 32.1269 55.9414 31.9324 55.9237 31.7237C55.4144 25.6961 51.4108 22.8873 43.313 22.8873C36.1088 22.8873 31.812 25.9293 31.812 31.0285C31.812 36.5594 36.0877 38.0878 43.0027 38.7716C51.2751 39.5826 51.9184 40.7917 51.9184 42.4188C51.9184 45.2452 49.6497 46.4492 44.3287 46.4492Z" fill="#83CD29"/>
</svg>
